<svg width="24" height="24" viewBox="0 0 24 24" fill="none" xmlns="http://www.w3.org/2000/svg">
<rect width="24" height="24" rx="12" fill="#F2F2F2"/>
<g clip-path="url(#clip0_2_4357)">
<path d="M18.9837 16.9815C18.9837 17.0874 18.9837 17.1404 18.9528 17.1523C18.9219 17.1641 18.8852 17.1249 18.8118 17.0466C18.3346 16.5374 17.6687 15.8994 16.9932 15.2359L16.3675 14.6214C14.3031 12.5935 13.2708 11.5796 11.9881 11.5796C10.7055 11.5796 9.67321 12.5935 7.60877 14.6214L6.98313 15.2359C6.3103 15.8968 5.6477 16.5378 5.17177 17.0467C5.09849 17.125 5.06185 17.1642 5.03092 17.1524C4.99999 17.1405 5 17.0876 5 16.9817C5.00001 16.6476 5.00007 16.2115 5.00032 15.7114C5.00033 15.6922 5.00033 15.6826 5.00391 15.674C5.00748 15.6653 5.01425 15.6585 5.02779 15.6449C5.46665 15.2022 5.96464 14.7126 6.52673 14.1605C8.02344 12.6903 9.06899 11.6665 9.96249 10.9969C10.8305 10.3464 11.4238 10.1332 12.001 10.1332C12.5781 10.1332 13.1714 10.3464 14.0394 10.9969C14.9329 11.6665 15.9785 12.6903 17.4752 14.1605C18.0295 14.705 18.5215 15.1887 18.956 15.6266C18.9695 15.6402 18.9763 15.6471 18.9799 15.6557C18.9835 15.6643 18.9835 15.674 18.9835 15.6932C18.9837 16.2337 18.9837 16.6513 18.9837 16.9815Z" fill="#FFBE18"/>
<path d="M18.9837 13.876C18.9837 13.9743 18.9837 14.0234 18.9537 14.0356C18.9237 14.0478 18.8884 14.013 18.8177 13.9433C18.6372 13.7655 18.4504 13.582 18.2572 13.3923C15.308 10.4953 13.8334 9.04688 12.0009 9.04688C10.1685 9.04688 8.69392 10.4953 5.74469 13.3923C5.54505 13.5884 5.35217 13.7779 5.16605 13.9612C5.09536 14.0309 5.06002 14.0657 5.03001 14.0535C5 14.0413 5 13.9922 5 13.8939L5 11.9206C5 10.8187 5 10.2677 5.26671 9.81394C5.53341 9.36017 6.01919 9.08469 6.99073 8.53371L10.0011 6.82646C10.9727 6.27549 11.4585 6 11.9919 6C12.5253 6 13.011 6.27549 13.9826 6.82646L16.993 8.53371C17.9646 9.08469 18.4503 9.36017 18.717 9.81394C18.9837 10.2677 18.9837 10.8187 18.9837 11.9206V13.876Z" fill="#FFBE18"/>
<path d="M16.2111 16.0041C16.988 16.7672 17.5782 17.3486 18.0192 17.8391C18.079 17.9056 18.109 17.9388 18.0961 17.9669C18.0832 17.995 18.0377 17.995 17.9468 17.995H16.7053C16.6844 17.995 16.6739 17.995 16.6646 17.991C16.6553 17.9871 16.6482 17.9795 16.6339 17.9644C16.39 17.7069 16.0958 17.4179 15.7513 17.0795L14.5 15.8504C13.3203 14.6916 12.7305 14.1122 11.9975 14.1122C11.2645 14.1122 10.6747 14.6916 9.49498 15.8504L8.24368 17.0795C7.89917 17.4179 7.60497 17.7069 7.36107 17.9644C7.34677 17.9795 7.33962 17.9871 7.33035 17.991C7.32108 17.995 7.31062 17.995 7.28972 17.995H6.02952C5.93856 17.995 5.89309 17.995 5.88019 17.9669C5.8673 17.9388 5.89721 17.9056 5.95704 17.8391C6.39809 17.3486 6.98826 16.7672 7.76516 16.0041L8.3908 15.3895C9.44512 14.3539 10.1589 13.656 10.7625 13.2037C11.3405 12.7704 11.6858 12.6659 11.9881 12.6659C12.2904 12.6659 12.6357 12.7704 13.2138 13.2037C13.8174 13.656 14.5312 14.3539 15.5855 15.3895L16.2111 16.0041Z" fill="#FFBE18"/>
</g>
<defs>
<clipPath id="clip0_2_4357">
<rect width="14" height="12" fill="white" transform="translate(5 6)"/>
</clipPath>
</defs>
</svg>
