<svg width="24" height="32" viewBox="0 0 24 32" fill="none" xmlns="http://www.w3.org/2000/svg">
<path d="M18.2639 8.60862C16.0561 6.40081 12.4608 6.40081 10.2553 8.60862L4.13811 14.7211C4.09826 14.761 4.07717 14.8149 4.07717 14.8711C4.07717 14.9274 4.09826 14.9813 4.13811 15.0211L5.00295 15.886C5.04248 15.9253 5.096 15.9474 5.15178 15.9474C5.20756 15.9474 5.26108 15.9253 5.30061 15.886L11.4178 9.77346C12.1772 9.01409 13.1873 8.5969 14.2608 8.5969C15.3342 8.5969 16.3444 9.01409 17.1014 9.77346C17.8608 10.5328 18.278 11.543 18.278 12.6141C18.278 13.6875 17.8608 14.6953 17.1014 15.4547L10.867 21.6867L9.85686 22.6969C8.91233 23.6414 7.37717 23.6414 6.43264 22.6969C5.97561 22.2399 5.72483 21.6328 5.72483 20.986C5.72483 20.3391 5.97561 19.7321 6.43264 19.275L12.6178 13.0922C12.7748 12.9375 12.9811 12.8508 13.2014 12.8508H13.2037C13.424 12.8508 13.628 12.9375 13.7826 13.0922C13.9397 13.2492 14.024 13.4555 14.024 13.6758C14.024 13.8938 13.9373 14.1 13.7826 14.2547L8.72717 19.3055C8.68733 19.3453 8.66623 19.3992 8.66623 19.4555C8.66623 19.5117 8.68733 19.5656 8.72717 19.6055L9.59201 20.4703C9.63155 20.5097 9.68506 20.5318 9.74084 20.5318C9.79663 20.5318 9.85014 20.5097 9.88967 20.4703L14.9428 15.4172C15.4092 14.9508 15.6647 14.3321 15.6647 13.6735C15.6647 13.0149 15.4069 12.3938 14.9428 11.9297C13.9795 10.9664 12.4139 10.9688 11.4506 11.9297L10.8506 12.5321L5.2678 18.1125C4.88888 18.4892 4.58853 18.9374 4.38414 19.431C4.17976 19.9247 4.07542 20.454 4.07717 20.9883C4.07717 22.0735 4.50139 23.093 5.2678 23.8594C6.06233 24.6516 7.10295 25.0477 8.14358 25.0477C9.1842 25.0477 10.2248 24.6516 11.017 23.8594L18.2639 16.6172C19.3303 15.5485 19.9209 14.1258 19.9209 12.6141C19.9233 11.1 19.3326 9.67737 18.2639 8.60862Z" fill="black" fill-opacity="0.45"/>
</svg>
