<svg width="36" height="36" viewBox="0 0 36 36" fill="none" xmlns="http://www.w3.org/2000/svg">
<path d="M35.4929 14.9198L35.4836 14.8823L30.2242 1.51829C29.9898 0.763598 29.2914 0.243286 28.4992 0.243286H7.18043C6.38356 0.243286 5.67574 0.772974 5.45074 1.53704L0.533555 14.7652L0.519493 14.798L0.510117 14.8355C0.44918 15.0652 0.43043 15.2995 0.463242 15.5292C0.458555 15.6042 0.453867 15.6792 0.453867 15.7542V32.9058C0.455107 33.6613 0.755772 34.3855 1.28998 34.9197C1.82419 35.4539 2.54838 35.7545 3.30387 35.7558H32.7039C34.2742 35.7558 35.5539 34.4761 35.5586 32.9058V15.7542C35.5586 15.6933 35.5586 15.6323 35.5539 15.5808C35.5726 15.3511 35.5539 15.1308 35.4929 14.9198ZM21.6273 12.9042L21.6132 13.6402C21.5757 15.7448 20.1226 17.1605 17.9992 17.1605C16.9632 17.1605 16.0726 16.8277 15.4304 16.1948C14.7882 15.562 14.4367 14.6808 14.4179 13.6402L14.4039 12.9042H4.75699L8.48355 3.84329H27.1961L31.0257 12.9042H21.6273ZM4.04918 16.5042H11.4226C12.5617 19.1808 14.9851 20.7605 18.0039 20.7605C19.5836 20.7605 21.0507 20.3198 22.2367 19.4855C23.2773 18.7542 24.0882 17.7323 24.6132 16.5042H31.9492V32.1558H4.04918V16.5042Z" fill="#2F69FF"/>
</svg>
